<svg width="353" height="139" viewBox="0 0 353 139" fill="none" xmlns="http://www.w3.org/2000/svg">
<path d="M48.0738 71.92C48.0738 75.1733 47.3271 78.16 45.8338 80.88C44.3404 83.5467 42.0471 85.7067 38.9538 87.36C35.8604 89.0133 32.0204 89.84 27.4338 89.84H18.9538V110H5.27375V53.84H27.4338C31.9138 53.84 35.7004 54.6133 38.7938 56.16C41.8871 57.7067 44.2071 59.84 45.7538 62.56C47.3004 65.28 48.0738 68.4 48.0738 71.92ZM26.3938 78.96C29.0071 78.96 30.9538 78.3467 32.2338 77.12C33.5138 75.8933 34.1538 74.16 34.1538 71.92C34.1538 69.68 33.5138 67.9467 32.2338 66.72C30.9538 65.4933 29.0071 64.88 26.3938 64.88H18.9538V78.96H26.3938ZM61.8356 60.72C59.4356 60.72 57.4623 60.0267 55.9156 58.64C54.4223 57.2 53.6756 55.44 53.6756 53.36C53.6756 51.2267 54.4223 49.4667 55.9156 48.08C57.4623 46.64 59.4356 45.92 61.8356 45.92C64.1823 45.92 66.1023 46.64 67.5956 48.08C69.1423 49.4667 69.9156 51.2267 69.9156 53.36C69.9156 55.44 69.1423 57.2 67.5956 58.64C66.1023 60.0267 64.1823 60.72 61.8356 60.72ZM68.6356 65.36V110H54.9556V65.36H68.6356ZM91.1094 98.72H110.469V110H75.8294V99.12L94.3894 76.64H75.9894V65.36H110.069V76.24L91.1094 98.72ZM130.557 98.72H149.917V110H115.277V99.12L133.837 76.64H115.437V65.36H149.517V76.24L130.557 98.72ZM154.484 87.6C154.484 83.0133 155.338 78.9867 157.044 75.52C158.804 72.0533 161.178 69.3867 164.164 67.52C167.151 65.6533 170.484 64.72 174.164 64.72C177.311 64.72 180.058 65.36 182.404 66.64C184.804 67.92 186.644 69.6 187.924 71.68V65.36H201.604V110H187.924V103.68C186.591 105.76 184.724 107.44 182.324 108.72C179.978 110 177.231 110.64 174.084 110.64C170.458 110.64 167.151 109.707 164.164 107.84C161.178 105.92 158.804 103.227 157.044 99.76C155.338 96.24 154.484 92.1867 154.484 87.6ZM187.924 87.68C187.924 84.2667 186.964 81.5733 185.044 79.6C183.178 77.6267 180.884 76.64 178.164 76.64C175.444 76.64 173.124 77.6267 171.204 79.6C169.338 81.52 168.404 84.1867 168.404 87.6C168.404 91.0133 169.338 93.7333 171.204 95.76C173.124 97.7333 175.444 98.72 178.164 98.72C180.884 98.72 183.178 97.7333 185.044 95.76C186.964 93.7867 187.924 91.0933 187.924 87.68ZM224.061 98.72H243.421V110H208.781V99.12L227.341 76.64H208.941V65.36H243.021V76.24L224.061 98.72ZM271.029 110.64C266.655 110.64 262.709 109.707 259.189 107.84C255.722 105.973 252.975 103.307 250.949 99.84C248.975 96.3733 247.989 92.32 247.989 87.68C247.989 83.0933 249.002 79.0667 251.029 75.6C253.055 72.08 255.829 69.3867 259.349 67.52C262.869 65.6533 266.815 64.72 271.189 64.72C275.562 64.72 279.509 65.6533 283.029 67.52C286.549 69.3867 289.322 72.08 291.349 75.6C293.375 79.0667 294.389 83.0933 294.389 87.68C294.389 92.2667 293.349 96.32 291.269 99.84C289.242 103.307 286.442 105.973 282.869 107.84C279.349 109.707 275.402 110.64 271.029 110.64ZM271.029 98.8C273.642 98.8 275.855 97.84 277.669 95.92C279.535 94 280.469 91.2533 280.469 87.68C280.469 84.1067 279.562 81.36 277.749 79.44C275.989 77.52 273.802 76.56 271.189 76.56C268.522 76.56 266.309 77.52 264.549 79.44C262.789 81.3067 261.909 84.0533 261.909 87.68C261.909 91.2533 262.762 94 264.469 95.92C266.229 97.84 268.415 98.8 271.029 98.8Z" fill="#008169"/>
<path d="M308.549 78.1899C316.637 79.0266 324.776 77.1776 331.709 72.9283C338.641 68.679 343.983 62.2657 346.908 54.6786C349.833 47.0915 350.179 38.7525 347.893 30.949C345.607 23.1456 340.816 16.3116 334.259 11.5022C327.702 6.69282 319.745 4.17546 311.615 4.3388C303.485 4.50213 295.635 7.33706 289.277 12.4059C282.919 17.4748 278.406 24.4957 276.435 32.3847C274.465 40.2737 275.145 48.592 278.373 56.0555L312.359 41.3589L308.549 78.1899Z" fill="#008169"/>
<circle cx="333.948" cy="39.8723" r="1.80278" fill="#FF4466"/>
<circle cx="333.948" cy="29.7768" r="1.80278" fill="#5EFF44"/>
<circle cx="315.92" cy="29.7768" r="1.80278" fill="#FFC244"/>
<circle cx="318.805" cy="19.6812" r="1.80278" fill="#FFC244"/>
<circle cx="303.661" cy="19.6812" r="1.80278" fill="#FFC244"/>
<circle cx="302.94" cy="34.8245" r="1.80278" fill="#FFC244"/>
<circle cx="289.94" cy="27.8245" r="1.80278" fill="#FFC244"/>
<circle cx="320.968" cy="49.9679" r="1.80278" fill="#FFC244"/>
<circle cx="336.968" cy="49.9679" r="1.80278" fill="#FFC244"/>
<circle cx="320.247" cy="65.1113" r="1.80278" fill="#FFC244"/>
<circle cx="333.227" cy="59.3424" r="1.80278" fill="#FFC244"/>
<circle cx="293.518" cy="41.9401" r="1.80278" fill="#C4DF1D"/>
<circle cx="282.028" cy="41.3146" r="1.80278" fill="#FF4444"/>
<path d="M90.1498 134.112C89.8191 134.112 89.5418 134 89.3178 133.776C89.0938 133.552 88.9818 133.275 88.9818 132.944C88.9818 132.613 89.0938 132.336 89.3178 132.112C89.5418 131.888 89.8191 131.776 90.1498 131.776C90.4698 131.776 90.7418 131.888 90.9658 132.112C91.1898 132.336 91.3018 132.613 91.3018 132.944C91.3018 133.275 91.1898 133.552 90.9658 133.776C90.7418 134 90.4698 134.112 90.1498 134.112ZM93.7691 134.112C93.4385 134.112 93.1611 134 92.9371 133.776C92.7131 133.552 92.6011 133.275 92.6011 132.944C92.6011 132.613 92.7131 132.336 92.9371 132.112C93.1611 131.888 93.4385 131.776 93.7691 131.776C94.0891 131.776 94.3611 131.888 94.5851 132.112C94.8091 132.336 94.9211 132.613 94.9211 132.944C94.9211 133.275 94.8091 133.552 94.5851 133.776C94.3611 134 94.0891 134.112 93.7691 134.112ZM97.3885 134.112C97.0578 134.112 96.7805 134 96.5565 133.776C96.3325 133.552 96.2205 133.275 96.2205 132.944C96.2205 132.613 96.3325 132.336 96.5565 132.112C96.7805 131.888 97.0578 131.776 97.3885 131.776C97.7085 131.776 97.9805 131.888 98.2045 132.112C98.4285 132.336 98.5405 132.613 98.5405 132.944C98.5405 133.275 98.4285 133.552 98.2045 133.776C97.9805 134 97.7085 134.112 97.3885 134.112ZM101.008 134.112C100.677 134.112 100.4 134 100.176 133.776C99.9519 133.552 99.8399 133.275 99.8399 132.944C99.8399 132.613 99.9519 132.336 100.176 132.112C100.4 131.888 100.677 131.776 101.008 131.776C101.328 131.776 101.6 131.888 101.824 132.112C102.048 132.336 102.16 132.613 102.16 132.944C102.16 133.275 102.048 133.552 101.824 133.776C101.6 134 101.328 134.112 101.008 134.112ZM105.715 126.48C106.025 126.075 106.446 125.733 106.979 125.456C107.513 125.179 108.115 125.04 108.787 125.04C109.555 125.04 110.254 125.232 110.883 125.616C111.523 125.989 112.025 126.517 112.387 127.2C112.75 127.883 112.931 128.667 112.931 129.552C112.931 130.437 112.75 131.232 112.387 131.936C112.025 132.629 111.523 133.173 110.883 133.568C110.254 133.952 109.555 134.144 108.787 134.144C108.115 134.144 107.518 134.011 106.995 133.744C106.473 133.467 106.046 133.125 105.715 132.72V138.192H103.891V125.184H105.715V126.48ZM111.075 129.552C111.075 128.944 110.947 128.421 110.691 127.984C110.446 127.536 110.115 127.2 109.699 126.976C109.294 126.741 108.857 126.624 108.387 126.624C107.929 126.624 107.491 126.741 107.075 126.976C106.67 127.211 106.339 127.552 106.083 128C105.838 128.448 105.715 128.976 105.715 129.584C105.715 130.192 105.838 130.725 106.083 131.184C106.339 131.632 106.67 131.973 107.075 132.208C107.491 132.443 107.929 132.56 108.387 132.56C108.857 132.56 109.294 132.443 109.699 132.208C110.115 131.963 110.446 131.611 110.691 131.152C110.947 130.693 111.075 130.16 111.075 129.552ZM115.423 124.016C115.092 124.016 114.815 123.904 114.591 123.68C114.367 123.456 114.255 123.179 114.255 122.848C114.255 122.517 114.367 122.24 114.591 122.016C114.815 121.792 115.092 121.68 115.423 121.68C115.743 121.68 116.015 121.792 116.239 122.016C116.463 122.24 116.575 122.517 116.575 122.848C116.575 123.179 116.463 123.456 116.239 123.68C116.015 123.904 115.743 124.016 115.423 124.016ZM116.319 125.184V134H114.495V125.184H116.319ZM120.09 132.512H124.09V134H117.978V132.512L121.994 126.672H117.978V125.184H124.09V126.672L120.09 132.512ZM127.381 132.512H131.381V134H125.269V132.512L129.285 126.672H125.269V125.184H131.381V126.672L127.381 132.512ZM132.448 129.552C132.448 128.667 132.63 127.883 132.992 127.2C133.366 126.517 133.867 125.989 134.496 125.616C135.136 125.232 135.84 125.04 136.608 125.04C137.302 125.04 137.904 125.179 138.416 125.456C138.939 125.723 139.355 126.059 139.664 126.464V125.184H141.504V134H139.664V132.688C139.355 133.104 138.934 133.451 138.4 133.728C137.867 134.005 137.259 134.144 136.576 134.144C135.819 134.144 135.126 133.952 134.496 133.568C133.867 133.173 133.366 132.629 132.992 131.936C132.63 131.232 132.448 130.437 132.448 129.552ZM139.664 129.584C139.664 128.976 139.536 128.448 139.28 128C139.035 127.552 138.71 127.211 138.304 126.976C137.899 126.741 137.462 126.624 136.992 126.624C136.523 126.624 136.086 126.741 135.68 126.976C135.275 127.2 134.944 127.536 134.688 127.984C134.443 128.421 134.32 128.944 134.32 129.552C134.32 130.16 134.443 130.693 134.688 131.152C134.944 131.611 135.275 131.963 135.68 132.208C136.096 132.443 136.534 132.56 136.992 132.56C137.462 132.56 137.899 132.443 138.304 132.208C138.71 131.973 139.035 131.632 139.28 131.184C139.536 130.725 139.664 130.192 139.664 129.584ZM146.968 129.552C146.968 128.667 147.15 127.883 147.512 127.2C147.886 126.517 148.387 125.989 149.016 125.616C149.656 125.232 150.36 125.04 151.128 125.04C151.822 125.04 152.424 125.179 152.936 125.456C153.459 125.723 153.875 126.059 154.184 126.464V125.184H156.024V134H154.184V132.688C153.875 133.104 153.454 133.451 152.92 133.728C152.387 134.005 151.779 134.144 151.096 134.144C150.339 134.144 149.646 133.952 149.016 133.568C148.387 133.173 147.886 132.629 147.512 131.936C147.15 131.232 146.968 130.437 146.968 129.552ZM154.184 129.584C154.184 128.976 154.056 128.448 153.8 128C153.555 127.552 153.23 127.211 152.824 126.976C152.419 126.741 151.982 126.624 151.512 126.624C151.043 126.624 150.606 126.741 150.2 126.976C149.795 127.2 149.464 127.536 149.208 127.984C148.963 128.421 148.84 128.944 148.84 129.552C148.84 130.16 148.963 130.693 149.208 131.152C149.464 131.611 149.795 131.963 150.2 132.208C150.616 132.443 151.054 132.56 151.512 132.56C151.982 132.56 152.419 132.443 152.824 132.208C153.23 131.973 153.555 131.632 153.8 131.184C154.056 130.725 154.184 130.192 154.184 129.584ZM162.628 125.04C163.321 125.04 163.94 125.184 164.484 125.472C165.039 125.76 165.471 126.187 165.78 126.752C166.089 127.317 166.244 128 166.244 128.8V134H164.436V129.072C164.436 128.283 164.239 127.68 163.844 127.264C163.449 126.837 162.911 126.624 162.228 126.624C161.545 126.624 161.001 126.837 160.596 127.264C160.201 127.68 160.004 128.283 160.004 129.072V134H158.18V125.184H160.004V126.192C160.303 125.829 160.681 125.547 161.14 125.344C161.609 125.141 162.105 125.04 162.628 125.04ZM176.267 125.184L170.859 138.144H168.971L170.763 133.856L167.291 125.184H169.323L171.803 131.904L174.379 125.184H176.267ZM189.243 125.184L186.507 134H184.587L182.811 127.488L181.035 134H179.115L176.363 125.184H178.219L180.059 132.272L181.931 125.184H183.835L185.627 132.24L187.451 125.184H189.243ZM194.926 125.04C195.598 125.04 196.196 125.184 196.718 125.472C197.252 125.76 197.668 126.187 197.966 126.752C198.276 127.317 198.43 128 198.43 128.8V134H196.622V129.072C196.622 128.283 196.425 127.68 196.03 127.264C195.636 126.837 195.097 126.624 194.414 126.624C193.732 126.624 193.188 126.837 192.782 127.264C192.388 127.68 192.19 128.283 192.19 129.072V134H190.366V122.16H192.19V126.208C192.5 125.835 192.889 125.547 193.358 125.344C193.838 125.141 194.361 125.04 194.926 125.04ZM208.597 129.376C208.597 129.707 208.576 130.005 208.533 130.272H201.797C201.85 130.976 202.112 131.541 202.581 131.968C203.05 132.395 203.626 132.608 204.309 132.608C205.29 132.608 205.984 132.197 206.389 131.376H208.357C208.09 132.187 207.605 132.853 206.901 133.376C206.208 133.888 205.344 134.144 204.309 134.144C203.466 134.144 202.709 133.957 202.037 133.584C201.376 133.2 200.853 132.667 200.469 131.984C200.096 131.291 199.909 130.491 199.909 129.584C199.909 128.677 200.09 127.883 200.453 127.2C200.826 126.507 201.344 125.973 202.005 125.6C202.677 125.227 203.445 125.04 204.309 125.04C205.141 125.04 205.882 125.221 206.533 125.584C207.184 125.947 207.69 126.459 208.053 127.12C208.416 127.771 208.597 128.523 208.597 129.376ZM206.693 128.8C206.682 128.128 206.442 127.589 205.973 127.184C205.504 126.779 204.922 126.576 204.229 126.576C203.6 126.576 203.061 126.779 202.613 127.184C202.165 127.579 201.898 128.117 201.813 128.8H206.693ZM211.976 126.464C212.243 126.016 212.595 125.669 213.032 125.424C213.48 125.168 214.008 125.04 214.616 125.04V126.928H214.152C213.437 126.928 212.893 127.109 212.52 127.472C212.157 127.835 211.976 128.464 211.976 129.36V134H210.152V125.184H211.976V126.464ZM224.133 129.376C224.133 129.707 224.111 130.005 224.069 130.272H217.333C217.386 130.976 217.647 131.541 218.117 131.968C218.586 132.395 219.162 132.608 219.845 132.608C220.826 132.608 221.519 132.197 221.925 131.376H223.893C223.626 132.187 223.141 132.853 222.437 133.376C221.743 133.888 220.879 134.144 219.845 134.144C219.002 134.144 218.245 133.957 217.573 133.584C216.911 133.2 216.389 132.667 216.005 131.984C215.631 131.291 215.445 130.491 215.445 129.584C215.445 128.677 215.626 127.883 215.989 127.2C216.362 126.507 216.879 125.973 217.541 125.6C218.213 125.227 218.981 125.04 219.845 125.04C220.677 125.04 221.418 125.221 222.069 125.584C222.719 125.947 223.226 126.459 223.589 127.12C223.951 127.771 224.133 128.523 224.133 129.376ZM222.229 128.8C222.218 128.128 221.978 127.589 221.509 127.184C221.039 126.779 220.458 126.576 219.765 126.576C219.135 126.576 218.597 126.779 218.149 127.184C217.701 127.579 217.434 128.117 217.349 128.8H222.229ZM237.54 125.184L232.132 138.144H230.244L232.036 133.856L228.564 125.184H230.596L233.076 131.904L235.652 125.184H237.54ZM242.5 134.144C241.668 134.144 240.916 133.957 240.244 133.584C239.572 133.2 239.044 132.667 238.66 131.984C238.276 131.291 238.084 130.491 238.084 129.584C238.084 128.688 238.282 127.893 238.676 127.2C239.071 126.507 239.61 125.973 240.292 125.6C240.975 125.227 241.738 125.04 242.58 125.04C243.423 125.04 244.186 125.227 244.868 125.6C245.551 125.973 246.09 126.507 246.484 127.2C246.879 127.893 247.076 128.688 247.076 129.584C247.076 130.48 246.874 131.275 246.468 131.968C246.063 132.661 245.508 133.2 244.804 133.584C244.111 133.957 243.343 134.144 242.5 134.144ZM242.5 132.56C242.97 132.56 243.407 132.448 243.812 132.224C244.228 132 244.564 131.664 244.82 131.216C245.076 130.768 245.204 130.224 245.204 129.584C245.204 128.944 245.082 128.405 244.836 127.968C244.591 127.52 244.266 127.184 243.86 126.96C243.455 126.736 243.018 126.624 242.548 126.624C242.079 126.624 241.642 126.736 241.236 126.96C240.842 127.184 240.527 127.52 240.292 127.968C240.058 128.405 239.94 128.944 239.94 129.584C239.94 130.533 240.18 131.269 240.66 131.792C241.151 132.304 241.764 132.56 242.5 132.56ZM256.623 125.184V134H254.799V132.96C254.511 133.323 254.133 133.611 253.663 133.824C253.205 134.027 252.714 134.128 252.191 134.128C251.498 134.128 250.874 133.984 250.319 133.696C249.775 133.408 249.343 132.981 249.023 132.416C248.714 131.851 248.559 131.168 248.559 130.368V125.184H250.367V130.096C250.367 130.885 250.565 131.493 250.959 131.92C251.354 132.336 251.893 132.544 252.575 132.544C253.258 132.544 253.797 132.336 254.191 131.92C254.597 131.493 254.799 130.885 254.799 130.096V125.184H256.623ZM262.098 129.552C262.098 128.667 262.28 127.883 262.642 127.2C263.016 126.517 263.517 125.989 264.146 125.616C264.786 125.232 265.49 125.04 266.258 125.04C266.952 125.04 267.554 125.179 268.066 125.456C268.589 125.723 269.005 126.059 269.314 126.464V125.184H271.154V134H269.314V132.688C269.005 133.104 268.584 133.451 268.05 133.728C267.517 134.005 266.909 134.144 266.226 134.144C265.469 134.144 264.776 133.952 264.146 133.568C263.517 133.173 263.016 132.629 262.642 131.936C262.28 131.232 262.098 130.437 262.098 129.552ZM269.314 129.584C269.314 128.976 269.186 128.448 268.93 128C268.685 127.552 268.36 127.211 267.954 126.976C267.549 126.741 267.112 126.624 266.642 126.624C266.173 126.624 265.736 126.741 265.33 126.976C264.925 127.2 264.594 127.536 264.338 127.984C264.093 128.421 263.97 128.944 263.97 129.552C263.97 130.16 264.093 130.693 264.338 131.152C264.594 131.611 264.925 131.963 265.33 132.208C265.746 132.443 266.184 132.56 266.642 132.56C267.112 132.56 267.549 132.443 267.954 132.208C268.36 131.973 268.685 131.632 268.93 131.184C269.186 130.725 269.314 130.192 269.314 129.584ZM275.134 126.464C275.401 126.016 275.753 125.669 276.19 125.424C276.638 125.168 277.166 125.04 277.774 125.04V126.928H277.31C276.595 126.928 276.051 127.109 275.678 127.472C275.315 127.835 275.134 128.464 275.134 129.36V134H273.31V125.184H275.134V126.464ZM287.291 129.376C287.291 129.707 287.269 130.005 287.227 130.272H280.491C280.544 130.976 280.805 131.541 281.275 131.968C281.744 132.395 282.32 132.608 283.003 132.608C283.984 132.608 284.677 132.197 285.083 131.376H287.051C286.784 132.187 286.299 132.853 285.595 133.376C284.901 133.888 284.037 134.144 283.003 134.144C282.16 134.144 281.403 133.957 280.731 133.584C280.069 133.2 279.547 132.667 279.163 131.984C278.789 131.291 278.603 130.491 278.603 129.584C278.603 128.677 278.784 127.883 279.147 127.2C279.52 126.507 280.037 125.973 280.699 125.6C281.371 125.227 282.139 125.04 283.003 125.04C283.835 125.04 284.576 125.221 285.227 125.584C285.877 125.947 286.384 126.459 286.747 127.12C287.109 127.771 287.291 128.523 287.291 129.376ZM285.387 128.8C285.376 128.128 285.136 127.589 284.667 127.184C284.197 126.779 283.616 126.576 282.923 126.576C282.293 126.576 281.755 126.779 281.307 127.184C280.859 127.579 280.592 128.117 280.507 128.8H285.387ZM291.134 122.88L290.926 130.64H289.406L289.198 122.88H291.134ZM290.222 134.112C289.891 134.112 289.614 134 289.39 133.776C289.166 133.552 289.054 133.275 289.054 132.944C289.054 132.613 289.166 132.336 289.39 132.112C289.614 131.888 289.891 131.776 290.222 131.776C290.542 131.776 290.814 131.888 291.038 132.112C291.262 132.336 291.374 132.613 291.374 132.944C291.374 133.275 291.262 133.552 291.038 133.776C290.814 134 290.542 134.112 290.222 134.112Z" fill="#008169"/>
</svg>
