<svg width="143" height="56" viewBox="0 0 143 56" fill="none" xmlns="http://www.w3.org/2000/svg">
<path d="M19.2615 35.768C19.2615 37.0693 18.9628 38.264 18.3655 39.352C17.7682 40.4187 16.8508 41.2827 15.6135 41.944C14.3762 42.6053 12.8402 42.936 11.0055 42.936H7.6135V51H2.1415V28.536H11.0055C12.7975 28.536 14.3122 28.8453 15.5495 29.464C16.7868 30.0827 17.7148 30.936 18.3335 32.024C18.9522 33.112 19.2615 34.36 19.2615 35.768ZM10.5895 38.584C11.6348 38.584 12.4135 38.3387 12.9255 37.848C13.4375 37.3573 13.6935 36.664 13.6935 35.768C13.6935 34.872 13.4375 34.1787 12.9255 33.688C12.4135 33.1973 11.6348 32.952 10.5895 32.952H7.6135V38.584H10.5895ZM24.6223 31.288C23.6623 31.288 22.8729 31.0107 22.2543 30.456C21.6569 29.88 21.3583 29.176 21.3583 28.344C21.3583 27.4907 21.6569 26.7867 22.2543 26.232C22.8729 25.656 23.6623 25.368 24.6223 25.368C25.5609 25.368 26.3289 25.656 26.9263 26.232C27.5449 26.7867 27.8543 27.4907 27.8543 28.344C27.8543 29.176 27.5449 29.88 26.9263 30.456C26.3289 31.0107 25.5609 31.288 24.6223 31.288ZM27.3423 33.144V51H21.8703V33.144H27.3423ZM36.1878 46.488H43.9318V51H30.0758V46.648L37.4998 37.656H30.1398V33.144H43.7718V37.496L36.1878 46.488ZM51.8228 46.488H59.5668V51H45.7108V46.648L53.1348 37.656H45.7747V33.144H59.4068V37.496L51.8228 46.488ZM61.2498 42.04C61.2498 40.2053 61.5911 38.5947 62.2738 37.208C62.9778 35.8213 63.9271 34.7547 65.1218 34.008C66.3164 33.2613 67.6498 32.888 69.1218 32.888C70.3804 32.888 71.4791 33.144 72.4178 33.656C73.3778 34.168 74.1138 34.84 74.6258 35.672V33.144H80.0978V51H74.6258V48.472C74.0924 49.304 73.3458 49.976 72.3858 50.488C71.4471 51 70.3484 51.256 69.0898 51.256C67.6391 51.256 66.3164 50.8827 65.1218 50.136C63.9271 49.368 62.9778 48.2907 62.2738 46.904C61.5911 45.496 61.2498 43.8747 61.2498 42.04ZM74.6258 42.072C74.6258 40.7067 74.2418 39.6293 73.4738 38.84C72.7271 38.0507 71.8098 37.656 70.7218 37.656C69.6338 37.656 68.7058 38.0507 67.9378 38.84C67.1911 39.608 66.8178 40.6747 66.8178 42.04C66.8178 43.4053 67.1911 44.4933 67.9378 45.304C68.7058 46.0933 69.6338 46.488 70.7218 46.488C71.8098 46.488 72.7271 46.0933 73.4738 45.304C74.2418 44.5147 74.6258 43.4373 74.6258 42.072ZM88.9365 46.488H96.6805V51H82.8245V46.648L90.2485 37.656H82.8885V33.144H96.5205V37.496L88.9365 46.488ZM107.579 51.256C105.83 51.256 104.251 50.8827 102.843 50.136C101.457 49.3893 100.358 48.3227 99.5475 46.936C98.7582 45.5493 98.3635 43.928 98.3635 42.072C98.3635 40.2373 98.7688 38.6267 99.5795 37.24C100.39 35.832 101.499 34.7547 102.907 34.008C104.315 33.2613 105.894 32.888 107.643 32.888C109.393 32.888 110.971 33.2613 112.379 34.008C113.787 34.7547 114.897 35.832 115.708 37.24C116.518 38.6267 116.924 40.2373 116.924 42.072C116.924 43.9067 116.507 45.528 115.675 46.936C114.865 48.3227 113.745 49.3893 112.315 50.136C110.907 50.8827 109.329 51.256 107.579 51.256ZM107.579 46.52C108.625 46.52 109.51 46.136 110.235 45.368C110.982 44.6 111.355 43.5013 111.355 42.072C111.355 40.6427 110.993 39.544 110.267 38.776C109.563 38.008 108.689 37.624 107.643 37.624C106.577 37.624 105.691 38.008 104.987 38.776C104.283 39.5227 103.931 40.6213 103.931 42.072C103.931 43.5013 104.273 44.6 104.955 45.368C105.659 46.136 106.534 46.52 107.579 46.52Z" fill="#008169"/>
<path d="M121.518 37.4409C125.426 37.8453 129.36 36.9517 132.71 34.898C136.061 32.8444 138.642 29.745 140.056 26.0783C141.469 22.4116 141.637 18.3815 140.532 14.6102C139.427 10.839 137.112 7.53622 133.943 5.21192C130.774 2.88763 126.928 1.67104 122.999 1.74997C119.07 1.82891 115.277 3.19898 112.204 5.64867C109.131 8.09836 106.95 11.4914 105.998 15.304C105.045 19.1167 105.374 23.1368 106.934 26.7437L123.359 19.6411L121.518 37.4409Z" fill="#008169"/>
<circle cx="133.793" cy="18.9227" r="0.871252" fill="#FF4466"/>
<circle cx="133.793" cy="14.0437" r="0.871252" fill="#5EFF44"/>
<circle cx="125.08" cy="14.0437" r="0.871252" fill="#FFC244"/>
<circle cx="126.474" cy="9.16468" r="0.871252" fill="#FFC244"/>
<circle cx="119.155" cy="9.16468" r="0.871252" fill="#FFC244"/>
<circle cx="118.807" cy="16.4832" r="0.871252" fill="#FFC244"/>
<circle cx="112.524" cy="13.1002" r="0.871252" fill="#FFC244"/>
<circle cx="127.519" cy="23.8017" r="0.871252" fill="#FFC244"/>
<circle cx="135.252" cy="23.8017" r="0.871252" fill="#FFC244"/>
<circle cx="127.171" cy="31.1202" r="0.871252" fill="#FFC244"/>
<circle cx="133.444" cy="28.3322" r="0.871252" fill="#FFC244"/>
<circle cx="114.253" cy="19.922" r="0.871252" fill="#C4DF1D"/>
<circle cx="108.7" cy="19.6197" r="0.871252" fill="#FF4444"/>
</svg>
